<svg width="1360" height="262" viewBox="0 0 1360 262" fill="none" xmlns="http://www.w3.org/2000/svg">
<g style="mix-blend-mode:exclusion" clip-path="url(#clip0_4085_5659)">
<path d="M86.1185 45.6849V50.9584H72.0603V89.6153C72.0603 105.062 62.0406 115.095 44.8916 115.095C27.7427 115.095 14.0516 105.062 14.0516 89.6153V50.9584H0V45.6849H30.7466V86.9785C30.7466 99.3412 37.7357 108.066 48.1092 108.066C58.4826 108.066 64.1567 100.222 64.1567 87.8597V45.6915H86.1185V45.6849ZM539.074 45.6849V50.9584H558.405V91.8114C558.405 104.989 556.423 108.94 548.74 108.94C542.632 108.94 536.564 104.208 536.437 98.4067C540.802 98.4067 544.34 95.0623 544.34 90.937C544.34 86.3444 541.27 83.4673 536.437 83.4673C531.604 83.4673 528.527 87.6861 528.527 91.8114C528.527 105.696 536.397 115.082 550.488 115.082C567.037 115.082 575.087 105.022 575.087 89.1613V50.945H585.627V45.6715H539.06L539.074 45.6849ZM199.973 112.452V107.178H214.906V50.9517H199.973V45.6782H243.022C264.11 45.6782 272.013 50.9517 272.013 61.0982C272.013 67.7669 265.558 73.8748 258.396 75.9909C270.692 77.2859 279.042 84.295 279.042 94.001C279.042 103.707 271.306 112.452 259.263 112.452H199.973ZM231.601 75.1164H239.511C252.688 75.1164 256.206 70.7975 256.206 63.0341C256.206 55.2707 251.814 50.9517 238.637 50.9517H231.608V75.1098L231.601 75.1164ZM263.229 94.001C263.229 86.2376 254.991 80.3833 249.17 80.3833H231.601V107.178H249.17C254.991 107.178 263.229 101.764 263.229 94.001ZM286.138 112.452V107.178H299.315L324.849 45.6782H339.982L365.635 107.178H377.938V112.452H349.748L339.227 87.2255L329.421 112.452H321.878L313.127 89.949L303.788 112.452H286.138ZM336.497 80.697L326.711 57.2332L318.427 77.1925L328.146 102.192L336.504 80.697H336.497ZM384.96 45.6849V50.9584H399.893V107.185H384.96V112.458H407.803V58.0476L457.881 117.725H459.637V50.9584H474.57V45.6849H451.727V85.1094L418.644 45.6849H384.96ZM99.2957 112.452V107.178H114.228V50.9517H99.2957V45.6782H140.589C150.702 45.6782 159.968 46.0186 165.628 49.2495C170.588 52.0798 173.612 57.1331 173.612 63.2477C173.612 73.6879 159.861 80.1964 146.297 81.2578C156.216 82.7797 163.759 85.3497 168.172 92.2253C172.084 98.3199 175.909 105.669 183.899 105.669C189.132 105.669 190.608 103.173 192.21 100.863L194.88 103.533C192.41 108.426 187.07 117.712 175.121 117.712C166.95 117.712 160.862 112.732 157.117 106.491C153.379 100.249 146.897 83.4473 136.184 83.4473H130.91V112.438H99.2823L99.2957 112.452ZM140.589 78.1871C151.497 78.1871 156.924 74.2086 156.924 64.5694C156.924 54.9302 152.945 50.9517 136.197 50.9517H130.923V78.1871H140.589ZM842.154 85.2162H856.212V105.83C853.669 108.012 850.191 109.815 843.269 109.815C830.025 109.815 818.997 96.1838 818.997 77.3059C818.997 58.4281 828.323 48.315 841.073 48.315C853.822 48.315 861.265 54.0291 861.265 69.4024H866.539L871.145 40.4114H865.871L860.304 48.8356C856.78 45.9252 849.397 43.0481 841.947 43.0481C815.967 43.0481 800.547 55.5911 800.547 79.0682C800.547 102.545 814.545 115.088 841.506 115.088C854.583 115.088 860.852 110.489 865.191 105.249C865.251 105.175 865.297 105.082 865.364 105.009L867.627 112.452H872.901V79.9427H842.154V85.2162ZM662.975 45.6849V87.853C662.975 100.216 657.301 108.059 646.927 108.059C636.554 108.059 629.565 99.3412 629.565 86.9718V45.6782H598.818V50.9517H612.876V89.6086C612.876 105.055 626.574 115.088 643.716 115.088C660.858 115.088 670.885 105.055 670.885 89.6086V50.9517H684.943V45.6782H662.981L662.975 45.6849ZM635.726 35.1378C635.726 35.1378 638.923 12.1079 640.091 3.89726C640.399 1.76115 637.835 -0.0078125 633.964 -0.0078125C630.092 -0.0078125 627.535 1.76115 627.836 3.89726C629.01 12.1079 632.201 35.1378 632.201 35.1378H635.712H635.726ZM660.331 35.1378C660.331 35.1378 663.529 12.1079 664.697 3.89726C665.004 1.76115 662.441 -0.0078125 658.569 -0.0078125C654.697 -0.0078125 652.14 1.76115 652.441 3.89726C653.616 12.1079 656.807 35.1378 656.807 35.1378H660.318H660.331ZM698.2 112.452V107.178H713.133V50.9517H698.2V45.6782H739.494C749.607 45.6782 758.873 46.0186 764.533 49.2495C769.493 52.0798 772.517 57.1331 772.517 63.2477C772.517 73.6879 758.766 80.1964 745.201 81.2578C755.121 82.7797 762.664 85.3497 767.076 92.2253C770.988 98.3199 774.813 105.669 782.804 105.669C788.037 105.669 789.512 103.173 791.114 100.863L793.784 103.533C791.315 108.426 785.974 117.712 774.026 117.712C765.862 117.712 759.767 112.732 756.022 106.491C752.284 100.249 745.802 83.4473 735.088 83.4473H729.815V112.438H698.187L698.2 112.452ZM739.494 78.1871C750.402 78.1871 755.829 74.2086 755.829 64.5694C755.829 54.9302 751.85 50.9517 735.102 50.9517H729.828V78.1871H739.494ZM1128.95 69.9097C1112.75 66.8991 1109.23 64.2023 1109.23 58.081C1109.23 51.9597 1115.2 48.3216 1125.48 48.3216C1135 48.3216 1145.38 52.427 1145.38 66.7723H1150.65L1154.83 40.418H1149.56L1143.47 48.4618L1143.61 48.7489C1138.99 45.0774 1132.02 43.0548 1125.48 43.0548C1108.66 43.0548 1096.93 50.9651 1096.93 63.5481C1096.93 76.1311 1106.07 82.8999 1122.31 86.0373C1139.07 89.2748 1145.21 92.1519 1145.21 98.8473C1145.21 105.543 1139.2 109.862 1126.35 109.862C1112.32 109.862 1104.28 101.043 1104.28 86.9919H1099.01L1094.13 117.738H1099.41L1104.62 107.952C1107.41 110.669 1114.31 115.102 1126.35 115.102C1144.85 115.102 1157.51 108.547 1157.51 92.7594C1157.51 78.641 1145.15 72.9336 1128.95 69.923V69.9097ZM894.862 45.6849V50.9584H909.795V107.185H894.862V112.458H973.438L969.539 87.8597H965.147L961.502 107.185H926.49V79.3219H942.304L944.941 90.7434H949.333V62.6269H944.941L942.304 74.0484H926.49V50.9517H958.231L961.629 68.9618H966.022L969.706 45.6782H894.856L894.862 45.6849ZM990.627 45.6849V50.9584H1005.56V107.185H990.627V112.458H1013.47V58.0476L1063.55 117.725H1065.3V50.9584H1080.24V45.6849H1057.39V85.1094L1024.31 45.6849H990.627ZM1174.63 45.6849V50.9584H1189.56V107.185H1174.63V112.458H1253.2L1249.3 87.8597H1244.91L1241.27 107.185H1206.25V79.3219H1222.07L1224.7 90.7434H1229.1V62.6269H1224.7L1222.07 74.0484H1206.25V50.9517H1237.99L1241.39 68.9618H1245.79L1249.47 45.6782H1174.62L1174.63 45.6849ZM1270.38 45.6849V50.9584H1285.32V107.185H1270.38V112.458H1293.23V58.0476L1343.3 117.725H1345.06V50.9584H1359.99V45.6849H1337.15V85.1094L1304.07 45.6849H1270.38Z" fill="white"/>
<path d="M634.307 242.008H640.321V214.85L632.611 218.391V216.208L646.529 209.613H648.128V242.008H653.655V244.044H634.307V242.008Z" fill="white"/>
<path d="M657.565 231.078L669.734 215.872H657.608V219.994H655.619V209.617H674.096V211.363L671.343 216.713C668.022 222.917 666.89 230.097 666.89 232.34H657.562V231.078H657.565Z" fill="white"/>
<path d="M676.958 242.783L689.126 227.577H677.001V231.699H675.012V221.322H693.489V223.068L690.735 228.418C687.414 234.623 686.283 241.802 686.283 244.045H676.954V242.783H676.958Z" fill="white"/>
<path d="M697.267 239.195L698.819 237.74C701.242 240.65 703.765 241.862 706.238 241.862C710.844 241.862 713.608 238.614 713.608 234.005C713.608 229.396 711.231 227.07 708.371 227.07C707.206 227.07 706.045 227.604 704.687 228.668L703.812 229.346V227.407L714.382 215.865H700.998V221.586H699.009V209.607H721.364V211.256L709.146 224.593C709.873 224.303 710.891 224.109 712.006 224.109C717.293 224.109 721.995 227.747 721.995 233.127C721.995 239.869 716.321 244.522 708.658 244.522C703.809 244.522 699.88 242.873 697.264 239.188L697.267 239.195Z" fill="white"/>
</g>
<defs>
<clipPath id="clip0_4085_5659">
<rect width="1360" height="262" fill="white"/>
</clipPath>
</defs>
</svg>
