<svg xmlns="http://www.w3.org/2000/svg" xmlns:xlink="http://www.w3.org/1999/xlink" width="130" zoomAndPan="magnify" viewBox="0 0 97.5 58.499998" height="78" preserveAspectRatio="xMidYMid meet" version="1.0"><defs><g/><clipPath id="7efa6809f1"><path d="M 0.164062 22 L 16 22 L 16 51 L 0.164062 51 Z M 0.164062 22 " clip-rule="nonzero"/></clipPath><clipPath id="74981be319"><path d="M 77 9 L 96.839844 9 L 96.839844 36 L 77 36 Z M 77 9 " clip-rule="nonzero"/></clipPath></defs><g clip-path="url(#7efa6809f1)"><g fill="#000000" fill-opacity="1"><g transform="translate(-0.00526579, 41.134667)"><g><path d="M 13.140625 -6.5 C 13.191406 -6.4375 13.207031 -6.359375 13.1875 -6.265625 C 13.175781 -6.179688 13.144531 -6.117188 13.09375 -6.078125 C 12.8125 -5.867188 12.414062 -5.664062 11.90625 -5.46875 C 11.40625 -5.28125 10.828125 -5.078125 10.171875 -4.859375 C 10.148438 -4.117188 10.132812 -3.328125 10.125 -2.484375 C 10.113281 -1.640625 10.109375 -0.796875 10.109375 0.046875 C 10.109375 0.898438 10.113281 1.722656 10.125 2.515625 C 10.144531 3.304688 10.171875 4.023438 10.203125 4.671875 C 10.234375 5.328125 10.257812 5.875 10.28125 6.3125 C 10.363281 6.25 10.453125 6.226562 10.546875 6.25 C 10.617188 6.269531 10.679688 6.3125 10.734375 6.375 C 10.785156 6.4375 10.8125 6.515625 10.8125 6.609375 C 10.75 6.929688 10.679688 7.191406 10.609375 7.390625 C 10.546875 7.597656 10.441406 7.71875 10.296875 7.75 C 10.265625 7.757812 10.234375 7.757812 10.203125 7.75 C 10.035156 7.738281 9.914062 7.617188 9.84375 7.390625 C 9.78125 7.160156 9.722656 6.710938 9.671875 6.046875 C 9.609375 5.210938 9.554688 4.082031 9.515625 2.65625 C 9.515625 1.75 9.507812 0.804688 9.5 -0.171875 C 9.5 -1.148438 9.503906 -2.082031 9.515625 -2.96875 C 8.941406 -1.1875 8.316406 0.320312 7.640625 1.5625 C 6.960938 2.8125 6.265625 3.75 5.546875 4.375 C 4.835938 5 4.132812 5.253906 3.4375 5.140625 C 2.8125 5.035156 2.289062 4.617188 1.875 3.890625 C 1.46875 3.171875 1.179688 2.191406 1.015625 0.953125 C 0.847656 -0.285156 0.828125 -1.726562 0.953125 -3.375 C 1.015625 -4.0625 1.125 -4.832031 1.28125 -5.6875 C 1.4375 -6.539062 1.628906 -7.421875 1.859375 -8.328125 C 2.097656 -9.242188 2.367188 -10.148438 2.671875 -11.046875 C 2.972656 -11.941406 3.296875 -12.785156 3.640625 -13.578125 C 3.984375 -14.367188 4.351562 -15.066406 4.75 -15.671875 C 5.132812 -16.253906 5.546875 -16.675781 5.984375 -16.9375 C 6.421875 -17.195312 6.84375 -17.265625 7.25 -17.140625 C 7.4375 -17.078125 7.644531 -16.925781 7.875 -16.6875 C 8.101562 -16.457031 8.304688 -16.09375 8.484375 -15.59375 C 8.671875 -15.09375 8.804688 -14.40625 8.890625 -13.53125 C 8.984375 -12.65625 8.96875 -11.53125 8.84375 -10.15625 C 8.84375 -10.070312 8.8125 -10 8.75 -9.9375 C 8.6875 -9.882812 8.617188 -9.863281 8.546875 -9.875 C 8.453125 -9.882812 8.375 -9.921875 8.3125 -9.984375 C 8.257812 -10.046875 8.234375 -10.117188 8.234375 -10.203125 C 8.347656 -11.617188 8.351562 -12.78125 8.25 -13.6875 C 8.144531 -14.59375 7.984375 -15.273438 7.765625 -15.734375 C 7.554688 -16.203125 7.316406 -16.46875 7.046875 -16.53125 C 6.785156 -16.625 6.5 -16.5625 6.1875 -16.34375 C 5.875 -16.132812 5.566406 -15.796875 5.265625 -15.328125 C 4.890625 -14.742188 4.53125 -14.066406 4.1875 -13.296875 C 3.851562 -12.523438 3.535156 -11.695312 3.234375 -10.8125 C 2.929688 -9.9375 2.664062 -9.050781 2.4375 -8.15625 C 2.207031 -7.269531 2.015625 -6.414062 1.859375 -5.59375 C 1.710938 -4.769531 1.617188 -4.015625 1.578125 -3.328125 C 1.378906 -0.898438 1.492188 1.03125 1.921875 2.46875 C 2.097656 3.082031 2.332031 3.566406 2.625 3.921875 C 2.914062 4.285156 3.234375 4.488281 3.578125 4.53125 C 3.972656 4.601562 4.421875 4.457031 4.921875 4.09375 C 5.429688 3.738281 5.929688 3.179688 6.421875 2.421875 C 6.972656 1.609375 7.492188 0.609375 7.984375 -0.578125 C 8.484375 -1.773438 8.953125 -3.117188 9.390625 -4.609375 C 9.066406 -4.523438 8.742188 -4.425781 8.421875 -4.3125 C 8.097656 -4.207031 7.765625 -4.109375 7.421875 -4.015625 C 6.878906 -3.847656 6.320312 -3.675781 5.75 -3.5 C 5.1875 -3.332031 4.632812 -3.164062 4.09375 -3 C 4.082031 -3 4.070312 -3 4.0625 -3 C 3.882812 -2.96875 3.769531 -3.03125 3.71875 -3.1875 C 3.6875 -3.269531 3.6875 -3.351562 3.71875 -3.4375 C 3.757812 -3.519531 3.820312 -3.570312 3.90625 -3.59375 C 4.4375 -3.769531 4.984375 -3.941406 5.546875 -4.109375 C 6.117188 -4.273438 6.6875 -4.441406 7.25 -4.609375 C 7.632812 -4.722656 8.023438 -4.835938 8.421875 -4.953125 C 8.816406 -5.066406 9.195312 -5.179688 9.5625 -5.296875 C 9.570312 -5.316406 9.578125 -5.335938 9.578125 -5.359375 C 9.578125 -5.378906 9.582031 -5.398438 9.59375 -5.421875 C 9.632812 -5.609375 9.75 -5.6875 9.9375 -5.65625 C 10.03125 -5.632812 10.101562 -5.578125 10.15625 -5.484375 C 10.738281 -5.679688 11.253906 -5.867188 11.703125 -6.046875 C 12.160156 -6.234375 12.503906 -6.410156 12.734375 -6.578125 C 12.804688 -6.617188 12.878906 -6.632812 12.953125 -6.625 C 13.035156 -6.613281 13.097656 -6.570312 13.140625 -6.5 Z M 13.140625 -6.5 "/></g></g></g></g><g fill="#000000" fill-opacity="1"><g transform="translate(14.443259, 38.412214)"><g><path d="M 4.609375 -4.46875 C 4.691406 -4.4375 4.742188 -4.378906 4.765625 -4.296875 C 4.796875 -4.210938 4.796875 -4.140625 4.765625 -4.078125 C 4.304688 -3.109375 3.878906 -2.296875 3.484375 -1.640625 C 3.085938 -0.992188 2.664062 -0.441406 2.21875 0.015625 C 1.875 0.359375 1.519531 0.566406 1.15625 0.640625 C 0.863281 0.691406 0.59375 0.660156 0.34375 0.546875 C 0.175781 0.472656 0 0.316406 -0.1875 0.078125 C -0.375 -0.160156 -0.519531 -0.53125 -0.625 -1.03125 C -0.738281 -1.539062 -0.738281 -2.226562 -0.625 -3.09375 C -0.625 -3.09375 -0.628906 -3.09375 -0.640625 -3.09375 C -0.515625 -4.15625 -0.289062 -4.988281 0.03125 -5.59375 C 0.351562 -6.195312 0.664062 -6.535156 0.96875 -6.609375 C 1.195312 -6.660156 1.375 -6.582031 1.5 -6.375 C 1.664062 -6.101562 1.609375 -5.65625 1.328125 -5.03125 C 1.046875 -4.40625 0.585938 -3.707031 -0.046875 -2.9375 C -0.128906 -2.164062 -0.125 -1.570312 -0.03125 -1.15625 C 0.0507812 -0.738281 0.15625 -0.453125 0.28125 -0.296875 C 0.414062 -0.140625 0.523438 -0.0390625 0.609375 0 C 0.960938 0.15625 1.351562 0.015625 1.78125 -0.421875 C 2.1875 -0.835938 2.585938 -1.359375 2.984375 -1.984375 C 3.378906 -2.617188 3.789062 -3.398438 4.21875 -4.328125 C 4.25 -4.390625 4.300781 -4.4375 4.375 -4.46875 C 4.457031 -4.5 4.535156 -4.5 4.609375 -4.46875 Z M 0.984375 -5.921875 C 0.878906 -5.828125 0.75 -5.644531 0.59375 -5.375 C 0.445312 -5.113281 0.3125 -4.734375 0.1875 -4.234375 C 0.476562 -4.671875 0.679688 -5.03125 0.796875 -5.3125 C 0.910156 -5.601562 0.972656 -5.804688 0.984375 -5.921875 Z M 0.984375 -5.921875 "/></g></g></g><g fill="#000000" fill-opacity="1"><g transform="translate(18.978881, 37.557593)"><g><path d="M 5.625 -4.65625 C 5.707031 -4.625 5.765625 -4.570312 5.796875 -4.5 C 5.835938 -4.425781 5.84375 -4.351562 5.8125 -4.28125 C 5.488281 -3.320312 5.171875 -2.570312 4.859375 -2.03125 C 4.554688 -1.5 4.203125 -1.21875 3.796875 -1.1875 C 3.265625 -1.15625 2.75 -1.644531 2.25 -2.65625 C 2.070312 -2.976562 1.925781 -3.203125 1.8125 -3.328125 C 1.707031 -3.460938 1.628906 -3.546875 1.578125 -3.578125 C 1.535156 -3.609375 1.503906 -3.617188 1.484375 -3.609375 C 1.453125 -3.617188 1.394531 -3.578125 1.3125 -3.484375 C 1.238281 -3.398438 1.132812 -3.210938 1 -2.921875 C 0.875 -2.640625 0.722656 -2.210938 0.546875 -1.640625 C 0.378906 -1.066406 0.203125 -0.289062 0.015625 0.6875 C -0.015625 0.820312 -0.09375 0.898438 -0.21875 0.921875 C -0.25 0.929688 -0.269531 0.929688 -0.28125 0.921875 C -0.476562 0.921875 -0.582031 0.820312 -0.59375 0.625 C -0.613281 0.195312 -0.609375 -0.304688 -0.578125 -0.890625 C -0.554688 -1.484375 -0.519531 -2.082031 -0.46875 -2.6875 C -0.414062 -3.289062 -0.367188 -3.835938 -0.328125 -4.328125 C -0.304688 -4.429688 -0.289062 -4.53125 -0.28125 -4.625 C -0.269531 -4.71875 -0.265625 -4.816406 -0.265625 -4.921875 C -0.242188 -4.992188 -0.203125 -5.054688 -0.140625 -5.109375 C -0.078125 -5.160156 -0.00390625 -5.179688 0.078125 -5.171875 C 0.160156 -5.171875 0.226562 -5.140625 0.28125 -5.078125 C 0.34375 -5.015625 0.363281 -4.9375 0.34375 -4.84375 C 0.34375 -4.75 0.335938 -4.65625 0.328125 -4.5625 C 0.316406 -4.46875 0.304688 -4.367188 0.296875 -4.265625 C 0.273438 -3.984375 0.242188 -3.671875 0.203125 -3.328125 C 0.171875 -2.992188 0.144531 -2.648438 0.125 -2.296875 C 0.34375 -3.023438 0.554688 -3.523438 0.765625 -3.796875 C 0.984375 -4.066406 1.195312 -4.21875 1.40625 -4.25 C 1.6875 -4.28125 1.941406 -4.160156 2.171875 -3.890625 C 2.398438 -3.617188 2.601562 -3.289062 2.78125 -2.90625 C 3.039062 -2.394531 3.253906 -2.082031 3.421875 -1.96875 C 3.585938 -1.851562 3.703125 -1.800781 3.765625 -1.8125 C 3.898438 -1.8125 4.039062 -1.910156 4.1875 -2.109375 C 4.34375 -2.316406 4.484375 -2.566406 4.609375 -2.859375 C 4.742188 -3.160156 4.867188 -3.457031 4.984375 -3.75 C 5.097656 -4.039062 5.175781 -4.28125 5.21875 -4.46875 C 5.25 -4.539062 5.300781 -4.59375 5.375 -4.625 C 5.457031 -4.664062 5.539062 -4.675781 5.625 -4.65625 Z M 5.625 -4.65625 "/></g></g></g><g fill="#000000" fill-opacity="1"><g transform="translate(24.543195, 36.509141)"><g><path d="M 11.421875 -11.6875 C 11.484375 -11.632812 11.515625 -11.5625 11.515625 -11.46875 C 11.523438 -11.382812 11.5 -11.304688 11.4375 -11.234375 C 11.320312 -11.128906 11.203125 -11.113281 11.078125 -11.1875 C 10.929688 -11.21875 10.613281 -11.195312 10.125 -11.125 C 9.644531 -11.0625 9.039062 -10.960938 8.3125 -10.828125 C 7.582031 -10.691406 6.78125 -10.535156 5.90625 -10.359375 C 5.03125 -10.191406 4.132812 -10.007812 3.21875 -9.8125 C 2.300781 -9.625 1.410156 -9.441406 0.546875 -9.265625 C 0.492188 -7.847656 0.4375 -6.3125 0.375 -4.65625 C 0.320312 -3.007812 0.28125 -1.335938 0.25 0.359375 C 0.207031 2.578125 0.191406 4.394531 0.203125 5.8125 C 0.210938 7.226562 0.242188 8.25 0.296875 8.875 C 0.304688 8.875 0.320312 8.875 0.34375 8.875 C 0.4375 8.882812 0.503906 8.925781 0.546875 9 C 0.597656 9.082031 0.613281 9.160156 0.59375 9.234375 C 0.5625 9.421875 0.519531 9.59375 0.46875 9.75 C 0.425781 9.914062 0.332031 10.015625 0.1875 10.046875 C 0.15625 10.046875 0.117188 10.046875 0.078125 10.046875 C -0.078125 10.023438 -0.175781 9.929688 -0.21875 9.765625 C -0.269531 9.597656 -0.300781 9.359375 -0.3125 9.046875 C -0.351562 8.609375 -0.378906 7.960938 -0.390625 7.109375 C -0.398438 6.316406 -0.40625 5.382812 -0.40625 4.3125 C -0.40625 3.25 -0.382812 2.082031 -0.34375 0.8125 C -0.320312 -0.914062 -0.285156 -2.628906 -0.234375 -4.328125 C -0.179688 -6.035156 -0.117188 -7.628906 -0.046875 -9.109375 C -0.546875 -9.003906 -1.015625 -8.90625 -1.453125 -8.8125 C -1.898438 -8.71875 -2.3125 -8.632812 -2.6875 -8.5625 C -3.375 -8.40625 -3.972656 -8.269531 -4.484375 -8.15625 C -5.003906 -8.050781 -5.378906 -7.976562 -5.609375 -7.9375 C -5.679688 -7.925781 -5.75 -7.945312 -5.8125 -8 C -5.882812 -8.050781 -5.929688 -8.117188 -5.953125 -8.203125 C -5.960938 -8.285156 -5.941406 -8.359375 -5.890625 -8.421875 C -5.847656 -8.492188 -5.789062 -8.535156 -5.71875 -8.546875 C -5.488281 -8.585938 -5.117188 -8.660156 -4.609375 -8.765625 C -4.109375 -8.878906 -3.507812 -9.007812 -2.8125 -9.15625 C -2.3125 -9.257812 -1.828125 -9.359375 -1.359375 -9.453125 C -0.898438 -9.554688 -0.453125 -9.65625 -0.015625 -9.75 C 0.015625 -10.445312 0.046875 -11.101562 0.078125 -11.71875 C 0.117188 -12.332031 0.164062 -12.894531 0.21875 -13.40625 C 0.226562 -13.5 0.265625 -13.570312 0.328125 -13.625 C 0.390625 -13.6875 0.457031 -13.710938 0.53125 -13.703125 C 0.613281 -13.703125 0.679688 -13.664062 0.734375 -13.59375 C 0.796875 -13.519531 0.820312 -13.445312 0.8125 -13.375 C 0.75 -12.394531 0.671875 -11.234375 0.578125 -9.890625 C 2.210938 -10.222656 3.601562 -10.503906 4.75 -10.734375 C 5.894531 -10.972656 6.851562 -11.164062 7.625 -11.3125 C 8.40625 -11.457031 9.039062 -11.5625 9.53125 -11.625 C 10.019531 -11.695312 10.390625 -11.742188 10.640625 -11.765625 C 10.898438 -11.785156 11.082031 -11.785156 11.1875 -11.765625 C 11.300781 -11.753906 11.378906 -11.726562 11.421875 -11.6875 Z M 11.421875 -11.6875 "/></g></g></g><g fill="#000000" fill-opacity="1"><g transform="translate(26.616178, 36.11854)"><g><path d="M 1.828125 -15.46875 C 2.003906 -15.300781 2.082031 -14.898438 2.0625 -14.265625 C 2.039062 -13.640625 1.910156 -12.84375 1.671875 -11.875 C 1.429688 -10.90625 1.082031 -9.820312 0.625 -8.625 C 0.613281 -8.613281 0.601562 -8.601562 0.59375 -8.59375 C 0.53125 -7.4375 0.472656 -6.257812 0.421875 -5.0625 C 0.378906 -3.875 0.335938 -2.707031 0.296875 -1.5625 C 0.265625 -0.414062 0.242188 0.65625 0.234375 1.65625 C 0.222656 2.664062 0.21875 3.566406 0.21875 4.359375 C 0.21875 5.148438 0.226562 5.78125 0.25 6.25 C 0.257812 6.25 0.269531 6.242188 0.28125 6.234375 C 0.375 6.253906 0.441406 6.296875 0.484375 6.359375 C 0.535156 6.429688 0.554688 6.507812 0.546875 6.59375 C 0.515625 6.800781 0.472656 6.992188 0.421875 7.171875 C 0.367188 7.347656 0.273438 7.453125 0.140625 7.484375 C 0.109375 7.484375 0.0703125 7.484375 0.03125 7.484375 C -0.0507812 7.472656 -0.125 7.421875 -0.1875 7.328125 C -0.257812 7.234375 -0.304688 7.035156 -0.328125 6.734375 C -0.347656 6.429688 -0.363281 5.960938 -0.375 5.328125 C -0.40625 4.171875 -0.398438 2.65625 -0.359375 0.78125 C -0.335938 -0.539062 -0.300781 -1.882812 -0.25 -3.25 C -0.195312 -4.625 -0.140625 -5.945312 -0.078125 -7.21875 C -0.015625 -8.488281 0.0546875 -9.648438 0.140625 -10.703125 C 0.148438 -10.910156 0.171875 -11.203125 0.203125 -11.578125 C 0.234375 -11.953125 0.28125 -12.351562 0.34375 -12.78125 C 0.414062 -13.207031 0.492188 -13.625 0.578125 -14.03125 C 0.671875 -14.4375 0.785156 -14.773438 0.921875 -15.046875 C 1.054688 -15.328125 1.207031 -15.5 1.375 -15.5625 C 1.539062 -15.625 1.691406 -15.59375 1.828125 -15.46875 Z M 0.75 -10.765625 C 1.0625 -11.796875 1.257812 -12.644531 1.34375 -13.3125 C 1.4375 -13.976562 1.472656 -14.445312 1.453125 -14.71875 C 1.347656 -14.5 1.222656 -14.078125 1.078125 -13.453125 C 0.929688 -12.828125 0.820312 -11.929688 0.75 -10.765625 Z M 0.75 -10.765625 "/></g></g></g><g fill="#000000" fill-opacity="1"><g transform="translate(28.985295, 35.672141)"><g><path d="M 4.609375 -4.46875 C 4.691406 -4.4375 4.742188 -4.378906 4.765625 -4.296875 C 4.796875 -4.210938 4.796875 -4.140625 4.765625 -4.078125 C 4.304688 -3.109375 3.878906 -2.296875 3.484375 -1.640625 C 3.085938 -0.992188 2.664062 -0.441406 2.21875 0.015625 C 1.875 0.359375 1.519531 0.566406 1.15625 0.640625 C 0.863281 0.691406 0.59375 0.660156 0.34375 0.546875 C 0.175781 0.472656 0 0.316406 -0.1875 0.078125 C -0.375 -0.160156 -0.519531 -0.53125 -0.625 -1.03125 C -0.738281 -1.539062 -0.738281 -2.226562 -0.625 -3.09375 C -0.625 -3.09375 -0.628906 -3.09375 -0.640625 -3.09375 C -0.515625 -4.15625 -0.289062 -4.988281 0.03125 -5.59375 C 0.351562 -6.195312 0.664062 -6.535156 0.96875 -6.609375 C 1.195312 -6.660156 1.375 -6.582031 1.5 -6.375 C 1.664062 -6.101562 1.609375 -5.65625 1.328125 -5.03125 C 1.046875 -4.40625 0.585938 -3.707031 -0.046875 -2.9375 C -0.128906 -2.164062 -0.125 -1.570312 -0.03125 -1.15625 C 0.0507812 -0.738281 0.15625 -0.453125 0.28125 -0.296875 C 0.414062 -0.140625 0.523438 -0.0390625 0.609375 0 C 0.960938 0.15625 1.351562 0.015625 1.78125 -0.421875 C 2.1875 -0.835938 2.585938 -1.359375 2.984375 -1.984375 C 3.378906 -2.617188 3.789062 -3.398438 4.21875 -4.328125 C 4.25 -4.390625 4.300781 -4.4375 4.375 -4.46875 C 4.457031 -4.5 4.535156 -4.5 4.609375 -4.46875 Z M 0.984375 -5.921875 C 0.878906 -5.828125 0.75 -5.644531 0.59375 -5.375 C 0.445312 -5.113281 0.3125 -4.734375 0.1875 -4.234375 C 0.476562 -4.671875 0.679688 -5.03125 0.796875 -5.3125 C 0.910156 -5.601562 0.972656 -5.804688 0.984375 -5.921875 Z M 0.984375 -5.921875 "/></g></g></g><g fill="#000000" fill-opacity="1"><g transform="translate(33.520918, 34.817519)"><g><path d="M 8.125 -5.140625 C 8.207031 -5.097656 8.257812 -5.035156 8.28125 -4.953125 C 8.300781 -4.867188 8.285156 -4.796875 8.234375 -4.734375 C 7.210938 -2.941406 6.289062 -2.117188 5.46875 -2.265625 C 4.882812 -2.359375 4.46875 -2.957031 4.21875 -4.0625 C 4.132812 -3.84375 4.050781 -3.585938 3.96875 -3.296875 C 3.882812 -3.003906 3.816406 -2.769531 3.765625 -2.59375 C 3.734375 -2.425781 3.703125 -2.269531 3.671875 -2.125 C 3.640625 -1.988281 3.601562 -1.875 3.5625 -1.78125 C 3.539062 -1.71875 3.5 -1.617188 3.4375 -1.484375 C 3.375 -1.347656 3.289062 -1.222656 3.1875 -1.109375 C 3.09375 -1.003906 2.96875 -0.957031 2.8125 -0.96875 C 2.613281 -0.96875 2.441406 -1.070312 2.296875 -1.28125 C 2.160156 -1.5 2.054688 -1.738281 1.984375 -2 C 1.910156 -2.257812 1.859375 -2.472656 1.828125 -2.640625 C 1.804688 -2.765625 1.78125 -2.890625 1.75 -3.015625 C 1.726562 -3.148438 1.710938 -3.269531 1.703125 -3.375 C 1.453125 -2.789062 1.210938 -2.1875 0.984375 -1.5625 C 0.753906 -0.9375 0.519531 -0.234375 0.28125 0.546875 C 0.195312 0.804688 0.0820312 0.953125 -0.0625 0.984375 C -0.113281 0.992188 -0.160156 0.984375 -0.203125 0.953125 C -0.253906 0.941406 -0.304688 0.914062 -0.359375 0.875 C -0.410156 0.84375 -0.453125 0.753906 -0.484375 0.609375 C -0.515625 0.472656 -0.53125 0.253906 -0.53125 -0.046875 C -0.539062 -0.347656 -0.53125 -0.765625 -0.5 -1.296875 C -0.46875 -1.960938 -0.398438 -2.628906 -0.296875 -3.296875 C -0.203125 -3.960938 -0.09375 -4.5625 0.03125 -5.09375 C 0.0390625 -5.1875 0.0820312 -5.253906 0.15625 -5.296875 C 0.226562 -5.347656 0.300781 -5.359375 0.375 -5.328125 C 0.457031 -5.316406 0.519531 -5.273438 0.5625 -5.203125 C 0.601562 -5.140625 0.613281 -5.066406 0.59375 -4.984375 C 0.445312 -4.273438 0.328125 -3.539062 0.234375 -2.78125 C 0.148438 -2.03125 0.0976562 -1.378906 0.078125 -0.828125 C 0.285156 -1.460938 0.5 -2.050781 0.71875 -2.59375 C 0.9375 -3.144531 1.175781 -3.691406 1.4375 -4.234375 C 1.457031 -4.273438 1.5 -4.335938 1.5625 -4.421875 C 1.625 -4.503906 1.726562 -4.539062 1.875 -4.53125 C 2.019531 -4.507812 2.113281 -4.425781 2.15625 -4.28125 C 2.207031 -4.132812 2.257812 -3.894531 2.3125 -3.5625 C 2.332031 -3.445312 2.351562 -3.316406 2.375 -3.171875 C 2.394531 -3.023438 2.414062 -2.882812 2.4375 -2.75 C 2.5 -2.4375 2.566406 -2.1875 2.640625 -2 C 2.722656 -1.8125 2.785156 -1.679688 2.828125 -1.609375 C 2.847656 -1.640625 2.867188 -1.679688 2.890625 -1.734375 C 2.910156 -1.796875 2.941406 -1.867188 2.984375 -1.953125 C 3.003906 -2.035156 3.03125 -2.144531 3.0625 -2.28125 C 3.101562 -2.425781 3.144531 -2.578125 3.1875 -2.734375 C 3.363281 -3.367188 3.503906 -3.859375 3.609375 -4.203125 C 3.710938 -4.546875 3.816406 -4.785156 3.921875 -4.921875 C 4.023438 -5.054688 4.148438 -5.117188 4.296875 -5.109375 C 4.472656 -5.097656 4.585938 -5.015625 4.640625 -4.859375 C 4.691406 -4.703125 4.726562 -4.578125 4.75 -4.484375 C 4.832031 -4.003906 4.945312 -3.617188 5.09375 -3.328125 C 5.238281 -3.046875 5.398438 -2.890625 5.578125 -2.859375 C 5.773438 -2.828125 6.054688 -2.960938 6.421875 -3.265625 C 6.796875 -3.578125 7.226562 -4.164062 7.71875 -5.03125 C 7.75 -5.101562 7.804688 -5.148438 7.890625 -5.171875 C 7.972656 -5.191406 8.050781 -5.179688 8.125 -5.140625 Z M 8.125 -5.140625 "/></g></g></g><g fill="#000000" fill-opacity="1"><g transform="translate(41.641394, 33.287424)"><g><path d="M 5.875 -4.6875 C 5.957031 -4.664062 6.015625 -4.617188 6.046875 -4.546875 C 6.085938 -4.472656 6.097656 -4.398438 6.078125 -4.328125 C 5.960938 -3.878906 5.828125 -3.429688 5.671875 -2.984375 C 5.515625 -2.535156 5.335938 -2.117188 5.140625 -1.734375 C 4.953125 -1.347656 4.738281 -1.023438 4.5 -0.765625 C 4.269531 -0.515625 4.023438 -0.367188 3.765625 -0.328125 C 3.703125 -0.316406 3.640625 -0.304688 3.578125 -0.296875 C 2.859375 -0.304688 2.253906 -1.160156 1.765625 -2.859375 C 1.640625 -2.597656 1.488281 -2.296875 1.3125 -1.953125 C 1.132812 -1.609375 0.941406 -1.269531 0.734375 -0.9375 C 0.691406 -0.882812 0.632812 -0.800781 0.5625 -0.6875 C 0.488281 -0.582031 0.394531 -0.492188 0.28125 -0.421875 C 0.164062 -0.347656 0.0390625 -0.332031 -0.09375 -0.375 C -0.363281 -0.40625 -0.535156 -0.648438 -0.609375 -1.109375 C -0.660156 -1.367188 -0.671875 -1.703125 -0.640625 -2.109375 C -0.617188 -2.515625 -0.554688 -2.925781 -0.453125 -3.34375 C -0.347656 -3.769531 -0.195312 -4.15625 0 -4.5 C 0.1875 -4.851562 0.421875 -5.109375 0.703125 -5.265625 C 0.878906 -5.367188 1.109375 -5.421875 1.390625 -5.421875 C 1.671875 -5.429688 1.984375 -5.289062 2.328125 -5 C 2.390625 -4.945312 2.425781 -4.878906 2.4375 -4.796875 C 2.445312 -4.710938 2.425781 -4.644531 2.375 -4.59375 C 2.332031 -4.53125 2.269531 -4.492188 2.1875 -4.484375 C 2.101562 -4.472656 2.023438 -4.488281 1.953125 -4.53125 C 1.640625 -4.769531 1.394531 -4.863281 1.21875 -4.8125 C 1.050781 -4.769531 0.914062 -4.6875 0.8125 -4.5625 C 0.601562 -4.351562 0.4375 -4.078125 0.3125 -3.734375 C 0.1875 -3.398438 0.09375 -3.046875 0.03125 -2.671875 C -0.03125 -2.304688 -0.0546875 -1.96875 -0.046875 -1.65625 C -0.046875 -1.351562 -0.0234375 -1.132812 0.015625 -1 C 0.046875 -1.03125 0.078125 -1.0625 0.109375 -1.09375 C 0.140625 -1.132812 0.171875 -1.1875 0.203125 -1.25 C 0.453125 -1.65625 0.671875 -2.050781 0.859375 -2.4375 C 1.054688 -2.820312 1.226562 -3.164062 1.375 -3.46875 C 1.40625 -3.53125 1.4375 -3.597656 1.46875 -3.671875 C 1.507812 -3.753906 1.539062 -3.828125 1.5625 -3.890625 C 1.625 -4.003906 1.726562 -4.054688 1.875 -4.046875 C 2.03125 -4.035156 2.125 -3.960938 2.15625 -3.828125 C 2.3125 -3.148438 2.46875 -2.613281 2.625 -2.21875 C 2.78125 -1.832031 2.921875 -1.539062 3.046875 -1.34375 C 3.179688 -1.15625 3.296875 -1.035156 3.390625 -0.984375 C 3.484375 -0.929688 3.554688 -0.910156 3.609375 -0.921875 C 3.816406 -0.921875 4.09375 -1.179688 4.4375 -1.703125 C 4.789062 -2.222656 5.144531 -3.144531 5.5 -4.46875 C 5.53125 -4.5625 5.582031 -4.625 5.65625 -4.65625 C 5.726562 -4.695312 5.800781 -4.707031 5.875 -4.6875 Z M 5.875 -4.6875 "/></g></g></g><g fill="#000000" fill-opacity="1"><g transform="translate(47.626564, 32.159673)"><g><path d="M 5.625 -4.65625 C 5.707031 -4.625 5.765625 -4.570312 5.796875 -4.5 C 5.835938 -4.425781 5.84375 -4.351562 5.8125 -4.28125 C 5.488281 -3.320312 5.171875 -2.570312 4.859375 -2.03125 C 4.554688 -1.5 4.203125 -1.21875 3.796875 -1.1875 C 3.265625 -1.15625 2.75 -1.644531 2.25 -2.65625 C 2.070312 -2.976562 1.925781 -3.203125 1.8125 -3.328125 C 1.707031 -3.460938 1.628906 -3.546875 1.578125 -3.578125 C 1.535156 -3.609375 1.503906 -3.617188 1.484375 -3.609375 C 1.453125 -3.617188 1.394531 -3.578125 1.3125 -3.484375 C 1.238281 -3.398438 1.132812 -3.210938 1 -2.921875 C 0.875 -2.640625 0.722656 -2.210938 0.546875 -1.640625 C 0.378906 -1.066406 0.203125 -0.289062 0.015625 0.6875 C -0.015625 0.820312 -0.09375 0.898438 -0.21875 0.921875 C -0.25 0.929688 -0.269531 0.929688 -0.28125 0.921875 C -0.476562 0.921875 -0.582031 0.820312 -0.59375 0.625 C -0.613281 0.195312 -0.609375 -0.304688 -0.578125 -0.890625 C -0.554688 -1.484375 -0.519531 -2.082031 -0.46875 -2.6875 C -0.414062 -3.289062 -0.367188 -3.835938 -0.328125 -4.328125 C -0.304688 -4.429688 -0.289062 -4.53125 -0.28125 -4.625 C -0.269531 -4.71875 -0.265625 -4.816406 -0.265625 -4.921875 C -0.242188 -4.992188 -0.203125 -5.054688 -0.140625 -5.109375 C -0.078125 -5.160156 -0.00390625 -5.179688 0.078125 -5.171875 C 0.160156 -5.171875 0.226562 -5.140625 0.28125 -5.078125 C 0.34375 -5.015625 0.363281 -4.9375 0.34375 -4.84375 C 0.34375 -4.75 0.335938 -4.65625 0.328125 -4.5625 C 0.316406 -4.46875 0.304688 -4.367188 0.296875 -4.265625 C 0.273438 -3.984375 0.242188 -3.671875 0.203125 -3.328125 C 0.171875 -2.992188 0.144531 -2.648438 0.125 -2.296875 C 0.34375 -3.023438 0.554688 -3.523438 0.765625 -3.796875 C 0.984375 -4.066406 1.195312 -4.21875 1.40625 -4.25 C 1.6875 -4.28125 1.941406 -4.160156 2.171875 -3.890625 C 2.398438 -3.617188 2.601562 -3.289062 2.78125 -2.90625 C 3.039062 -2.394531 3.253906 -2.082031 3.421875 -1.96875 C 3.585938 -1.851562 3.703125 -1.800781 3.765625 -1.8125 C 3.898438 -1.8125 4.039062 -1.910156 4.1875 -2.109375 C 4.34375 -2.316406 4.484375 -2.566406 4.609375 -2.859375 C 4.742188 -3.160156 4.867188 -3.457031 4.984375 -3.75 C 5.097656 -4.039062 5.175781 -4.28125 5.21875 -4.46875 C 5.25 -4.539062 5.300781 -4.59375 5.375 -4.625 C 5.457031 -4.664062 5.539062 -4.675781 5.625 -4.65625 Z M 5.625 -4.65625 "/></g></g></g><g fill="#000000" fill-opacity="1"><g transform="translate(53.190878, 31.111221)"><g><path d="M 0.484375 -8.90625 C 0.703125 -8.8125 0.832031 -8.632812 0.875 -8.375 C 0.9375 -8.082031 0.878906 -7.753906 0.703125 -7.390625 C 0.523438 -7.035156 0.320312 -6.726562 0.09375 -6.46875 C 0.0507812 -6.414062 -0.00390625 -6.382812 -0.078125 -6.375 C -0.171875 -6.351562 -0.257812 -6.378906 -0.34375 -6.453125 C -0.40625 -6.503906 -0.4375 -6.570312 -0.4375 -6.65625 C -0.445312 -6.75 -0.421875 -6.820312 -0.359375 -6.875 C -0.148438 -7.113281 0.015625 -7.363281 0.140625 -7.625 C 0.273438 -7.894531 0.328125 -8.109375 0.296875 -8.265625 C 0.296875 -8.316406 0.269531 -8.351562 0.21875 -8.375 C 0.132812 -8.414062 0.078125 -8.472656 0.046875 -8.546875 C 0.0234375 -8.628906 0.0351562 -8.703125 0.078125 -8.765625 C 0.109375 -8.847656 0.160156 -8.898438 0.234375 -8.921875 C 0.316406 -8.953125 0.398438 -8.945312 0.484375 -8.90625 Z M 0.484375 -8.90625 "/></g></g></g><g fill="#000000" fill-opacity="1"><g transform="translate(55.66904, 30.644275)"><g><path d="M 6.265625 -4.875 C 6.335938 -4.832031 6.382812 -4.769531 6.40625 -4.6875 C 6.4375 -4.601562 6.425781 -4.523438 6.375 -4.453125 C 6.132812 -4.054688 5.875 -3.601562 5.59375 -3.09375 C 5.3125 -2.59375 5.035156 -2.109375 4.765625 -1.640625 C 4.492188 -1.179688 4.257812 -0.78125 4.0625 -0.4375 C 3.863281 -0.09375 3.734375 0.140625 3.671875 0.265625 C 3.535156 0.523438 3.410156 0.78125 3.296875 1.03125 C 3.535156 1.59375 3.648438 2.148438 3.640625 2.703125 C 3.640625 3.265625 3.550781 3.78125 3.375 4.25 C 3.195312 4.71875 2.992188 5.09375 2.765625 5.375 C 2.515625 5.675781 2.265625 5.847656 2.015625 5.890625 C 1.859375 5.921875 1.710938 5.894531 1.578125 5.8125 C 1.378906 5.675781 1.273438 5.4375 1.265625 5.09375 C 1.265625 4.757812 1.328125 4.363281 1.453125 3.90625 C 1.585938 3.457031 1.757812 2.984375 1.96875 2.484375 C 2.175781 1.984375 2.390625 1.492188 2.609375 1.015625 C 2.515625 0.847656 2.40625 0.675781 2.28125 0.5 C 2.15625 0.320312 2.015625 0.144531 1.859375 -0.03125 C 1.304688 -0.59375 0.828125 -1.125 0.421875 -1.625 C 0.0234375 -2.132812 -0.207031 -2.632812 -0.28125 -3.125 C -0.382812 -3.976562 -0.125 -4.6875 0.5 -5.25 C 0.769531 -5.488281 1.0625 -5.648438 1.375 -5.734375 C 1.695312 -5.828125 2 -5.835938 2.28125 -5.765625 C 2.363281 -5.742188 2.421875 -5.695312 2.453125 -5.625 C 2.492188 -5.550781 2.507812 -5.476562 2.5 -5.40625 C 2.46875 -5.3125 2.414062 -5.242188 2.34375 -5.203125 C 2.28125 -5.160156 2.207031 -5.148438 2.125 -5.171875 C 1.707031 -5.273438 1.304688 -5.148438 0.921875 -4.796875 C 0.441406 -4.378906 0.25 -3.847656 0.34375 -3.203125 C 0.394531 -2.804688 0.609375 -2.375 0.984375 -1.90625 C 1.359375 -1.445312 1.789062 -0.96875 2.28125 -0.46875 C 2.53125 -0.195312 2.753906 0.078125 2.953125 0.359375 C 3.015625 0.242188 3.082031 0.113281 3.15625 -0.03125 C 3.207031 -0.144531 3.332031 -0.375 3.53125 -0.71875 C 3.738281 -1.0625 3.972656 -1.472656 4.234375 -1.953125 C 4.492188 -2.429688 4.769531 -2.914062 5.0625 -3.40625 C 5.351562 -3.90625 5.613281 -4.359375 5.84375 -4.765625 C 5.882812 -4.828125 5.945312 -4.875 6.03125 -4.90625 C 6.113281 -4.945312 6.191406 -4.9375 6.265625 -4.875 Z M 2.734375 4.21875 C 2.785156 4.09375 2.84375 3.914062 2.90625 3.6875 C 2.96875 3.457031 3.003906 3.179688 3.015625 2.859375 C 3.035156 2.546875 3 2.195312 2.90625 1.8125 C 2.5625 2.582031 2.3125 3.210938 2.15625 3.703125 C 2.007812 4.191406 1.921875 4.5625 1.890625 4.8125 C 1.867188 5.0625 1.878906 5.21875 1.921875 5.28125 C 1.992188 5.269531 2.109375 5.175781 2.265625 5 C 2.421875 4.832031 2.578125 4.570312 2.734375 4.21875 Z M 2.734375 4.21875 "/></g></g></g><g fill="#000000" fill-opacity="1"><g transform="translate(61.950333, 29.460727)"><g/></g></g><g fill="#000000" fill-opacity="1"><g transform="translate(66.735334, 28.559116)"><g><path d="M 11.984375 -6.015625 C 12.066406 -5.992188 12.128906 -5.945312 12.171875 -5.875 C 12.210938 -5.800781 12.222656 -5.722656 12.203125 -5.640625 C 11.578125 -3.222656 10.894531 -1.144531 10.15625 0.59375 C 9.425781 2.34375 8.660156 3.707031 7.859375 4.6875 C 7.066406 5.675781 6.257812 6.25 5.4375 6.40625 C 5.207031 6.445312 4.96875 6.453125 4.71875 6.421875 C 4.125 6.359375 3.578125 6.078125 3.078125 5.578125 C 2.578125 5.078125 2.144531 4.398438 1.78125 3.546875 C 1.414062 2.691406 1.125 1.691406 0.90625 0.546875 C 0.695312 -0.597656 0.570312 -1.863281 0.53125 -3.25 C 0.507812 -4.175781 0.535156 -5.175781 0.609375 -6.25 C 0.691406 -7.332031 0.816406 -8.382812 0.984375 -9.40625 C 1.078125 -9.976562 1.203125 -10.609375 1.359375 -11.296875 C 1.515625 -11.992188 1.703125 -12.6875 1.921875 -13.375 C 2.148438 -14.0625 2.421875 -14.691406 2.734375 -15.265625 C 2.992188 -15.722656 3.238281 -16.0625 3.46875 -16.28125 C 3.695312 -16.5 3.910156 -16.628906 4.109375 -16.671875 C 4.316406 -16.722656 4.492188 -16.734375 4.640625 -16.703125 C 5.015625 -16.585938 5.316406 -16.285156 5.546875 -15.796875 C 5.785156 -15.304688 5.972656 -14.675781 6.109375 -13.90625 C 6.253906 -13.132812 6.363281 -12.273438 6.4375 -11.328125 C 6.507812 -10.390625 6.539062 -9.410156 6.53125 -8.390625 C 6.53125 -7.367188 6.519531 -6.375 6.5 -5.40625 C 6.5 -5.332031 6.460938 -5.265625 6.390625 -5.203125 C 6.328125 -5.148438 6.257812 -5.125 6.1875 -5.125 C 6.101562 -5.132812 6.03125 -5.164062 5.96875 -5.21875 C 5.90625 -5.269531 5.875 -5.335938 5.875 -5.421875 C 5.945312 -7.304688 5.953125 -8.910156 5.890625 -10.234375 C 5.828125 -11.554688 5.722656 -12.640625 5.578125 -13.484375 C 5.429688 -14.335938 5.257812 -14.972656 5.0625 -15.390625 C 4.875 -15.804688 4.675781 -16.035156 4.46875 -16.078125 C 4.3125 -16.128906 4.128906 -16.054688 3.921875 -15.859375 C 3.710938 -15.660156 3.5 -15.363281 3.28125 -14.96875 C 2.96875 -14.425781 2.691406 -13.789062 2.453125 -13.0625 C 2.210938 -12.34375 2.003906 -11.566406 1.828125 -10.734375 C 1.660156 -9.898438 1.519531 -9.046875 1.40625 -8.171875 C 1.300781 -7.304688 1.226562 -6.453125 1.1875 -5.609375 C 1.144531 -4.773438 1.128906 -4 1.140625 -3.28125 C 1.160156 -1.976562 1.269531 -0.773438 1.46875 0.328125 C 1.675781 1.429688 1.960938 2.398438 2.328125 3.234375 C 2.660156 4.023438 3.039062 4.640625 3.46875 5.078125 C 3.894531 5.515625 4.335938 5.757812 4.796875 5.8125 C 5.847656 5.9375 6.9375 5.144531 8.0625 3.4375 C 9.363281 1.40625 10.546875 -1.671875 11.609375 -5.796875 C 11.628906 -5.878906 11.671875 -5.941406 11.734375 -5.984375 C 11.804688 -6.035156 11.890625 -6.046875 11.984375 -6.015625 Z M 11.984375 -6.015625 "/></g></g></g><g fill="#000000" fill-opacity="1"><g transform="translate(78.767975, 26.291874)"><g><path d="M 5.578125 -4.53125 C 5.648438 -4.5 5.703125 -4.445312 5.734375 -4.375 C 5.773438 -4.300781 5.78125 -4.226562 5.75 -4.15625 C 5.695312 -4.007812 5.601562 -3.773438 5.46875 -3.453125 C 5.34375 -3.140625 5.179688 -2.789062 4.984375 -2.40625 C 4.796875 -2.019531 4.585938 -1.640625 4.359375 -1.265625 C 4.140625 -0.898438 3.90625 -0.582031 3.65625 -0.3125 C 3.414062 -0.0507812 3.179688 0.0976562 2.953125 0.140625 C 2.867188 0.148438 2.796875 0.148438 2.734375 0.140625 C 2.453125 0.078125 2.238281 -0.132812 2.09375 -0.5 C 1.957031 -0.863281 1.878906 -1.421875 1.859375 -2.171875 C 1.753906 -1.960938 1.640625 -1.75 1.515625 -1.53125 C 1.390625 -1.320312 1.253906 -1.125 1.109375 -0.9375 C 0.890625 -0.65625 0.679688 -0.515625 0.484375 -0.515625 C 0.285156 -0.515625 0.148438 -0.546875 0.078125 -0.609375 C -0.140625 -0.734375 -0.300781 -0.945312 -0.40625 -1.25 C -0.507812 -1.5625 -0.554688 -1.921875 -0.546875 -2.328125 C -0.546875 -2.734375 -0.476562 -3.132812 -0.34375 -3.53125 C -0.3125 -3.601562 -0.253906 -3.660156 -0.171875 -3.703125 C -0.0976562 -3.753906 -0.0195312 -3.757812 0.0625 -3.71875 C 0.144531 -3.6875 0.203125 -3.632812 0.234375 -3.5625 C 0.265625 -3.488281 0.269531 -3.410156 0.25 -3.328125 C 0.113281 -2.992188 0.0390625 -2.664062 0.03125 -2.34375 C 0.03125 -2.019531 0.0625 -1.75 0.125 -1.53125 C 0.1875 -1.320312 0.265625 -1.195312 0.359375 -1.15625 C 0.410156 -1.132812 0.460938 -1.148438 0.515625 -1.203125 C 0.578125 -1.265625 0.617188 -1.300781 0.640625 -1.3125 C 0.804688 -1.519531 0.957031 -1.753906 1.09375 -2.015625 C 1.226562 -2.285156 1.335938 -2.523438 1.421875 -2.734375 C 1.546875 -3.003906 1.648438 -3.203125 1.734375 -3.328125 C 1.816406 -3.453125 1.941406 -3.5 2.109375 -3.46875 C 2.265625 -3.445312 2.359375 -3.34375 2.390625 -3.15625 C 2.429688 -2.976562 2.453125 -2.738281 2.453125 -2.4375 C 2.460938 -1.8125 2.5 -1.359375 2.5625 -1.078125 C 2.625 -0.804688 2.679688 -0.632812 2.734375 -0.5625 C 2.796875 -0.5 2.832031 -0.46875 2.84375 -0.46875 C 2.976562 -0.4375 3.273438 -0.742188 3.734375 -1.390625 C 4.191406 -2.046875 4.675781 -3.035156 5.1875 -4.359375 C 5.207031 -4.441406 5.257812 -4.5 5.34375 -4.53125 C 5.425781 -4.5625 5.503906 -4.5625 5.578125 -4.53125 Z M 5.578125 -4.53125 "/></g></g></g><g clip-path="url(#74981be319)"><g fill="#000000" fill-opacity="1"><g transform="translate(84.254355, 25.258107)"><g><path d="M 11.421875 -11.6875 C 11.484375 -11.632812 11.515625 -11.5625 11.515625 -11.46875 C 11.523438 -11.382812 11.5 -11.304688 11.4375 -11.234375 C 11.320312 -11.128906 11.203125 -11.113281 11.078125 -11.1875 C 10.929688 -11.21875 10.613281 -11.195312 10.125 -11.125 C 9.644531 -11.0625 9.039062 -10.960938 8.3125 -10.828125 C 7.582031 -10.691406 6.78125 -10.535156 5.90625 -10.359375 C 5.03125 -10.191406 4.132812 -10.007812 3.21875 -9.8125 C 2.300781 -9.625 1.410156 -9.441406 0.546875 -9.265625 C 0.492188 -7.847656 0.4375 -6.3125 0.375 -4.65625 C 0.320312 -3.007812 0.28125 -1.335938 0.25 0.359375 C 0.207031 2.578125 0.191406 4.394531 0.203125 5.8125 C 0.210938 7.226562 0.242188 8.25 0.296875 8.875 C 0.304688 8.875 0.320312 8.875 0.34375 8.875 C 0.4375 8.882812 0.503906 8.925781 0.546875 9 C 0.597656 9.082031 0.613281 9.160156 0.59375 9.234375 C 0.5625 9.421875 0.519531 9.59375 0.46875 9.75 C 0.425781 9.914062 0.332031 10.015625 0.1875 10.046875 C 0.15625 10.046875 0.117188 10.046875 0.078125 10.046875 C -0.078125 10.023438 -0.175781 9.929688 -0.21875 9.765625 C -0.269531 9.597656 -0.300781 9.359375 -0.3125 9.046875 C -0.351562 8.609375 -0.378906 7.960938 -0.390625 7.109375 C -0.398438 6.316406 -0.40625 5.382812 -0.40625 4.3125 C -0.40625 3.25 -0.382812 2.082031 -0.34375 0.8125 C -0.320312 -0.914062 -0.285156 -2.628906 -0.234375 -4.328125 C -0.179688 -6.035156 -0.117188 -7.628906 -0.046875 -9.109375 C -0.546875 -9.003906 -1.015625 -8.90625 -1.453125 -8.8125 C -1.898438 -8.71875 -2.3125 -8.632812 -2.6875 -8.5625 C -3.375 -8.40625 -3.972656 -8.269531 -4.484375 -8.15625 C -5.003906 -8.050781 -5.378906 -7.976562 -5.609375 -7.9375 C -5.679688 -7.925781 -5.75 -7.945312 -5.8125 -8 C -5.882812 -8.050781 -5.929688 -8.117188 -5.953125 -8.203125 C -5.960938 -8.285156 -5.941406 -8.359375 -5.890625 -8.421875 C -5.847656 -8.492188 -5.789062 -8.535156 -5.71875 -8.546875 C -5.488281 -8.585938 -5.117188 -8.660156 -4.609375 -8.765625 C -4.109375 -8.878906 -3.507812 -9.007812 -2.8125 -9.15625 C -2.3125 -9.257812 -1.828125 -9.359375 -1.359375 -9.453125 C -0.898438 -9.554688 -0.453125 -9.65625 -0.015625 -9.75 C 0.015625 -10.445312 0.046875 -11.101562 0.078125 -11.71875 C 0.117188 -12.332031 0.164062 -12.894531 0.21875 -13.40625 C 0.226562 -13.5 0.265625 -13.570312 0.328125 -13.625 C 0.390625 -13.6875 0.457031 -13.710938 0.53125 -13.703125 C 0.613281 -13.703125 0.679688 -13.664062 0.734375 -13.59375 C 0.796875 -13.519531 0.820312 -13.445312 0.8125 -13.375 C 0.75 -12.394531 0.671875 -11.234375 0.578125 -9.890625 C 2.210938 -10.222656 3.601562 -10.503906 4.75 -10.734375 C 5.894531 -10.972656 6.851562 -11.164062 7.625 -11.3125 C 8.40625 -11.457031 9.039062 -11.5625 9.53125 -11.625 C 10.019531 -11.695312 10.390625 -11.742188 10.640625 -11.765625 C 10.898438 -11.785156 11.082031 -11.785156 11.1875 -11.765625 C 11.300781 -11.753906 11.378906 -11.726562 11.421875 -11.6875 Z M 11.421875 -11.6875 "/></g></g></g></g></svg>